<svg width="64" height="64" viewBox="0 0 64 64" fill="none" xmlns="http://www.w3.org/2000/svg">
  <rect width="64" height="64" rx="18" fill="#0F172A"/>
  <rect x="3" y="3" width="58" height="58" rx="15" fill="url(#paint0_linear)"/>
  <rect x="8" y="8" width="48" height="48" rx="12" fill="rgba(15,23,42,0.18)"/>
  <path d="M23.7 40.1c0 2.4 1.9 4.1 4.9 4.1 2.6 0 4.3-1.1 4.3-2.8 0-1.4-.9-2.2-3.1-2.8l-2.4-.6c-3.8-1-5.6-2.9-5.6-5.9 0-3.8 3.2-6.3 8-6.3 4.7 0 7.8 2.5 7.9 6.3h-4.4c-.1-2.3-1.5-3.7-4-3.7-2.4 0-3.9 1.1-3.9 2.8 0 1.3 1 2.1 3.2 2.7l2 .5c4.3 1.1 5.9 2.8 5.9 6 0 4.1-3.1 6.6-8.5 6.6-5.1 0-8.3-2.4-8.4-6.5h4.1Z" fill="white"/>
  <path d="M41.7 35.6c0-6.4 4.2-10.8 10.1-10.8 4.7 0 8.3 2.7 9.2 6.9h-4.4c-.8-2-2.5-3.1-4.8-3.1-3.5 0-5.8 2.8-5.8 7 0 4.3 2.3 7 5.9 7 3 0 5-1.8 5.2-4.7h-4.8v-3.4h9v2.7c0 5.7-3.7 9.4-9.5 9.4-6.3 0-10.1-4.2-10.1-11Z" fill="white"/>
  <defs>
    <linearGradient id="paint0_linear" x1="10" y1="8" x2="56" y2="60" gradientUnits="userSpaceOnUse">
      <stop stop-color="#3B82F6"/>
      <stop offset="0.45" stop-color="#22D3EE"/>
      <stop offset="1" stop-color="#34D399"/>
    </linearGradient>
  </defs>
</svg>
