<svg width="512" height="512" viewBox="0 0 512 512" fill="none" xmlns="http://www.w3.org/2000/svg">
  <rect width="512" height="512" rx="144" fill="#0F172A"/>
  <rect x="24" y="24" width="464" height="464" rx="120" fill="url(#paint0_linear)"/>
  <rect x="64" y="64" width="384" height="384" rx="96" fill="rgba(15,23,42,0.18)"/>
  <path d="M171.731 319.905C171.731 339.218 187.235 352.983 211.014 352.983C231.584 352.983 245.135 343.991 245.135 330.761C245.135 319.048 237.963 311.876 220.63 307.204L201.638 302.318C171.945 294.503 157.967 279.785 157.967 255.581C157.967 225.461 183.418 204.463 221.231 204.463C258.402 204.463 283.211 224.82 284.067 255.153H249.255C248.613 236.804 237.107 225.461 217.687 225.461C198.91 225.461 186.75 234.239 186.75 247.683C186.75 258.383 194.565 265.127 211.899 269.799L227.473 273.829C260.952 282.393 273.327 295.623 273.327 321.929C273.327 354.123 248.945 373.543 207.412 373.543C167.376 373.543 141.925 354.337 141.069 321.073H171.731Z" fill="white"/>
  <path d="M314.237 282.607C314.237 232.204 347.501 197.511 394.096 197.511C430.84 197.511 459.036 218.723 466.209 252.629H431.397C425.082 236.59 411.424 227.491 393.454 227.491C365.686 227.491 347.608 249.345 347.608 282.286C347.608 316.084 365.9 337.51 394.738 337.51C418.3 337.51 434.125 323.425 435.623 300.611H398.981V273.615H467.492V294.719C467.492 339.111 439.617 367.306 395.808 367.306C346.109 367.306 314.237 334.364 314.237 282.607Z" fill="white"/>
  <defs>
    <linearGradient id="paint0_linear" x1="80" y1="64" x2="448" y2="480" gradientUnits="userSpaceOnUse">
      <stop stop-color="#3B82F6"/>
      <stop offset="0.45" stop-color="#22D3EE"/>
      <stop offset="1" stop-color="#34D399"/>
    </linearGradient>
  </defs>
</svg>
